<svg id="Layer_3" enable-background="new 0 0 64 64" height="512" viewBox="0 0 64 64" width="512" xmlns="http://www.w3.org/2000/svg"><path d="m30 45h4v15h-4z" fill="#c18e59"/><path d="m28 23h8v10h-8z" fill="#c18e59"/><circle cx="32" cy="39" fill="#4d5d7a" r="9"/><circle cx="32" cy="14" fill="#4d5d7a" r="12"/><g fill="#8892a0"><circle cx="32" cy="39" r="7"/><circle cx="32" cy="14" r="10"/><path d="m39 58h-14c-1.105 0-2 .895-2 2v2h18v-2c0-1.105-.895-2-2-2z"/></g><path d="m25.293 19.293 1.414 1.414 4.008-4.008c.391.188.823.301 1.285.301 1.654 0 3-1.346 3-3s-1.346-3-3-3-3 1.346-3 3c0 .462.113.894.301 1.285zm6.707-6.293c.551 0 1 .449 1 1s-.449 1-1 1-1-.449-1-1 .449-1 1-1z" fill="#fff"/><path d="m35 39c0-1.654-1.346-3-3-3s-3 1.346-3 3 1.346 3 3 3c.462 0 .894-.113 1.285-.301l2.008 2.008 1.414-1.414-2.008-2.008c.188-.391.301-.823.301-1.285zm-4 0c0-.552.449-1 1-1s1 .448 1 1-.449 1-1 1-1-.448-1-1z" fill="#fff"/></svg>